<svg width="82" height="115" viewBox="0 0 82 115" fill="none" xmlns="http://www.w3.org/2000/svg">
<g opacity="0.3">
<mask id="mask0_1943:1121" style="mask-type:alpha" maskUnits="userSpaceOnUse" x="10" y="0" width="12" height="11">
<path d="M15.7909 10.425C18.6784 10.425 21.0193 8.09121 21.0193 5.21245C21.0193 2.33368 18.6784 0 15.7909 0C12.9033 0 10.5625 2.33368 10.5625 5.21245C10.5625 8.09121 12.9033 10.425 15.7909 10.425Z" fill="url(#paint0_linear_1943:1121)"/>
</mask>
<g mask="url(#mask0_1943:1121)">
<path d="M15.7909 10.425C18.6784 10.425 21.0193 8.09121 21.0193 5.21245C21.0193 2.33368 18.6784 0 15.7909 0C12.9033 0 10.5625 2.33368 10.5625 5.21245C10.5625 8.09121 12.9033 10.425 15.7909 10.425Z" fill="url(#paint1_linear_1943:1121)"/>
</g>
<mask id="mask1_1943:1121" style="mask-type:alpha" maskUnits="userSpaceOnUse" x="40" y="0" width="12" height="11">
<path d="M46.0721 10.425C48.9597 10.425 51.3005 8.09121 51.3005 5.21245C51.3005 2.33368 48.9597 0 46.0721 0C43.1846 0 40.8438 2.33368 40.8438 5.21245C40.8438 8.09121 43.1846 10.425 46.0721 10.425Z" fill="url(#paint2_linear_1943:1121)"/>
</mask>
<g mask="url(#mask1_1943:1121)">
<path d="M46.0721 10.425C48.9597 10.425 51.3005 8.09121 51.3005 5.21245C51.3005 2.33368 48.9597 0 46.0721 0C43.1846 0 40.8438 2.33368 40.8438 5.21245C40.8438 8.09121 43.1846 10.425 46.0721 10.425Z" fill="url(#paint3_linear_1943:1121)"/>
</g>
<mask id="mask2_1943:1121" style="mask-type:alpha" maskUnits="userSpaceOnUse" x="71" y="0" width="11" height="11">
<path d="M76.3534 10.425C79.2409 10.425 81.5818 8.09121 81.5818 5.21245C81.5818 2.33368 79.2409 0 76.3534 0C73.4658 0 71.125 2.33368 71.125 5.21245C71.125 8.09121 73.4658 10.425 76.3534 10.425Z" fill="url(#paint4_linear_1943:1121)"/>
</mask>
<g mask="url(#mask2_1943:1121)">
<path d="M76.3534 10.425C79.2409 10.425 81.5818 8.09121 81.5818 5.21245C81.5818 2.33368 79.2409 0 76.3534 0C73.4658 0 71.125 2.33368 71.125 5.21245C71.125 8.09121 73.4658 10.425 76.3534 10.425Z" fill="url(#paint5_linear_1943:1121)"/>
</g>
<mask id="mask3_1943:1121" style="mask-type:alpha" maskUnits="userSpaceOnUse" x="10" y="26" width="12" height="11">
<path d="M15.7909 36.5958C18.6784 36.5958 21.0193 34.2621 21.0193 31.3833C21.0193 28.5046 18.6784 26.1709 15.7909 26.1709C12.9033 26.1709 10.5625 28.5046 10.5625 31.3833C10.5625 34.2621 12.9033 36.5958 15.7909 36.5958Z" fill="url(#paint6_linear_1943:1121)"/>
</mask>
<g mask="url(#mask3_1943:1121)">
<path d="M15.7909 36.5958C18.6784 36.5958 21.0193 34.2621 21.0193 31.3833C21.0193 28.5046 18.6784 26.1709 15.7909 26.1709C12.9033 26.1709 10.5625 28.5046 10.5625 31.3833C10.5625 34.2621 12.9033 36.5958 15.7909 36.5958Z" fill="url(#paint7_linear_1943:1121)"/>
</g>
<mask id="mask4_1943:1121" style="mask-type:alpha" maskUnits="userSpaceOnUse" x="40" y="26" width="12" height="11">
<path d="M46.0721 36.5958C48.9597 36.5958 51.3005 34.2621 51.3005 31.3833C51.3005 28.5046 48.9597 26.1709 46.0721 26.1709C43.1846 26.1709 40.8438 28.5046 40.8438 31.3833C40.8438 34.2621 43.1846 36.5958 46.0721 36.5958Z" fill="url(#paint8_linear_1943:1121)"/>
</mask>
<g mask="url(#mask4_1943:1121)">
<path d="M46.0721 36.5958C48.9597 36.5958 51.3005 34.2621 51.3005 31.3833C51.3005 28.5046 48.9597 26.1709 46.0721 26.1709C43.1846 26.1709 40.8438 28.5046 40.8438 31.3833C40.8438 34.2621 43.1846 36.5958 46.0721 36.5958Z" fill="url(#paint9_linear_1943:1121)"/>
</g>
<mask id="mask5_1943:1121" style="mask-type:alpha" maskUnits="userSpaceOnUse" x="71" y="26" width="11" height="11">
<path d="M76.3534 36.5958C79.2409 36.5958 81.5818 34.2621 81.5818 31.3833C81.5818 28.5046 79.2409 26.1709 76.3534 26.1709C73.4658 26.1709 71.125 28.5046 71.125 31.3833C71.125 34.2621 73.4658 36.5958 76.3534 36.5958Z" fill="url(#paint10_linear_1943:1121)"/>
</mask>
<g mask="url(#mask5_1943:1121)">
<path d="M76.3534 36.5958C79.2409 36.5958 81.5818 34.2621 81.5818 31.3833C81.5818 28.5046 79.2409 26.1709 76.3534 26.1709C73.4658 26.1709 71.125 28.5046 71.125 31.3833C71.125 34.2621 73.4658 36.5958 76.3534 36.5958Z" fill="url(#paint11_linear_1943:1121)"/>
</g>
<mask id="mask6_1943:1121" style="mask-type:alpha" maskUnits="userSpaceOnUse" x="10" y="52" width="12" height="11">
<path d="M15.7909 62.7126C18.6784 62.7126 21.0193 60.3789 21.0193 57.5001C21.0193 54.6213 18.6784 52.2876 15.7909 52.2876C12.9033 52.2876 10.5625 54.6213 10.5625 57.5001C10.5625 60.3789 12.9033 62.7126 15.7909 62.7126Z" fill="url(#paint12_linear_1943:1121)"/>
</mask>
<g mask="url(#mask6_1943:1121)">
<path d="M15.7909 62.7126C18.6784 62.7126 21.0193 60.3789 21.0193 57.5001C21.0193 54.6213 18.6784 52.2876 15.7909 52.2876C12.9033 52.2876 10.5625 54.6213 10.5625 57.5001C10.5625 60.3789 12.9033 62.7126 15.7909 62.7126Z" fill="url(#paint13_linear_1943:1121)"/>
</g>
<mask id="mask7_1943:1121" style="mask-type:alpha" maskUnits="userSpaceOnUse" x="40" y="52" width="12" height="11">
<path d="M46.0721 62.7126C48.9597 62.7126 51.3005 60.3789 51.3005 57.5001C51.3005 54.6213 48.9597 52.2876 46.0721 52.2876C43.1846 52.2876 40.8438 54.6213 40.8438 57.5001C40.8438 60.3789 43.1846 62.7126 46.0721 62.7126Z" fill="url(#paint14_linear_1943:1121)"/>
</mask>
<g mask="url(#mask7_1943:1121)">
<path d="M46.0721 62.7126C48.9597 62.7126 51.3005 60.3789 51.3005 57.5001C51.3005 54.6213 48.9597 52.2876 46.0721 52.2876C43.1846 52.2876 40.8438 54.6213 40.8438 57.5001C40.8438 60.3789 43.1846 62.7126 46.0721 62.7126Z" fill="url(#paint15_linear_1943:1121)"/>
</g>
<mask id="mask8_1943:1121" style="mask-type:alpha" maskUnits="userSpaceOnUse" x="71" y="52" width="11" height="11">
<path d="M76.3534 62.7126C79.2409 62.7126 81.5818 60.3789 81.5818 57.5001C81.5818 54.6213 79.2409 52.2876 76.3534 52.2876C73.4658 52.2876 71.125 54.6213 71.125 57.5001C71.125 60.3789 73.4658 62.7126 76.3534 62.7126Z" fill="url(#paint16_linear_1943:1121)"/>
</mask>
<g mask="url(#mask8_1943:1121)">
<path d="M76.3534 62.7126C79.2409 62.7126 81.5818 60.3789 81.5818 57.5001C81.5818 54.6213 79.2409 52.2876 76.3534 52.2876C73.4658 52.2876 71.125 54.6213 71.125 57.5001C71.125 60.3789 73.4658 62.7126 76.3534 62.7126Z" fill="url(#paint17_linear_1943:1121)"/>
</g>
<mask id="mask9_1943:1121" style="mask-type:alpha" maskUnits="userSpaceOnUse" x="10" y="78" width="12" height="11">
<path d="M15.7909 88.8835C18.6784 88.8835 21.0193 86.5497 21.0193 83.6709C21.0193 80.7922 18.6784 78.4585 15.7909 78.4585C12.9033 78.4585 10.5625 80.7922 10.5625 83.6709C10.5625 86.5497 12.9033 88.8835 15.7909 88.8835Z" fill="url(#paint18_linear_1943:1121)"/>
</mask>
<g mask="url(#mask9_1943:1121)">
<path d="M15.7909 88.8835C18.6784 88.8835 21.0193 86.5497 21.0193 83.6709C21.0193 80.7922 18.6784 78.4585 15.7909 78.4585C12.9033 78.4585 10.5625 80.7922 10.5625 83.6709C10.5625 86.5497 12.9033 88.8835 15.7909 88.8835Z" fill="url(#paint19_linear_1943:1121)"/>
</g>
<mask id="mask10_1943:1121" style="mask-type:alpha" maskUnits="userSpaceOnUse" x="40" y="78" width="12" height="11">
<path d="M46.0721 88.8835C48.9597 88.8835 51.3005 86.5497 51.3005 83.6709C51.3005 80.7922 48.9597 78.4585 46.0721 78.4585C43.1846 78.4585 40.8438 80.7922 40.8438 83.6709C40.8438 86.5497 43.1846 88.8835 46.0721 88.8835Z" fill="url(#paint20_linear_1943:1121)"/>
</mask>
<g mask="url(#mask10_1943:1121)">
<path d="M46.0721 88.8835C48.9597 88.8835 51.3005 86.5497 51.3005 83.6709C51.3005 80.7922 48.9597 78.4585 46.0721 78.4585C43.1846 78.4585 40.8438 80.7922 40.8438 83.6709C40.8438 86.5497 43.1846 88.8835 46.0721 88.8835Z" fill="url(#paint21_linear_1943:1121)"/>
</g>
<mask id="mask11_1943:1121" style="mask-type:alpha" maskUnits="userSpaceOnUse" x="71" y="78" width="11" height="11">
<path d="M76.3534 88.8835C79.2409 88.8835 81.5818 86.5497 81.5818 83.6709C81.5818 80.7922 79.2409 78.4585 76.3534 78.4585C73.4658 78.4585 71.125 80.7922 71.125 83.6709C71.125 86.5497 73.4658 88.8835 76.3534 88.8835Z" fill="url(#paint22_linear_1943:1121)"/>
</mask>
<g mask="url(#mask11_1943:1121)">
<path d="M76.3534 88.8835C79.2409 88.8835 81.5818 86.5497 81.5818 83.6709C81.5818 80.7922 79.2409 78.4585 76.3534 78.4585C73.4658 78.4585 71.125 80.7922 71.125 83.6709C71.125 86.5497 73.4658 88.8835 76.3534 88.8835Z" fill="url(#paint23_linear_1943:1121)"/>
</g>
<mask id="mask12_1943:1121" style="mask-type:alpha" maskUnits="userSpaceOnUse" x="10" y="104" width="12" height="11">
<path d="M15.7909 115C18.6784 115 21.0193 112.666 21.0193 109.787C21.0193 106.909 18.6784 104.575 15.7909 104.575C12.9033 104.575 10.5625 106.909 10.5625 109.787C10.5625 112.666 12.9033 115 15.7909 115Z" fill="url(#paint24_linear_1943:1121)"/>
</mask>
<g mask="url(#mask12_1943:1121)">
<path d="M15.7909 115C18.6784 115 21.0193 112.666 21.0193 109.787C21.0193 106.909 18.6784 104.575 15.7909 104.575C12.9033 104.575 10.5625 106.909 10.5625 109.787C10.5625 112.666 12.9033 115 15.7909 115Z" fill="url(#paint25_linear_1943:1121)"/>
</g>
<mask id="mask13_1943:1121" style="mask-type:alpha" maskUnits="userSpaceOnUse" x="40" y="104" width="12" height="11">
<path d="M46.0721 115C48.9597 115 51.3005 112.666 51.3005 109.787C51.3005 106.909 48.9597 104.575 46.0721 104.575C43.1846 104.575 40.8438 106.909 40.8438 109.787C40.8438 112.666 43.1846 115 46.0721 115Z" fill="url(#paint26_linear_1943:1121)"/>
</mask>
<g mask="url(#mask13_1943:1121)">
<path d="M46.0721 115C48.9597 115 51.3005 112.666 51.3005 109.787C51.3005 106.909 48.9597 104.575 46.0721 104.575C43.1846 104.575 40.8438 106.909 40.8438 109.787C40.8438 112.666 43.1846 115 46.0721 115Z" fill="url(#paint27_linear_1943:1121)"/>
</g>
<mask id="mask14_1943:1121" style="mask-type:alpha" maskUnits="userSpaceOnUse" x="71" y="104" width="11" height="11">
<path d="M76.3534 115C79.2409 115 81.5818 112.666 81.5818 109.787C81.5818 106.909 79.2409 104.575 76.3534 104.575C73.4658 104.575 71.125 106.909 71.125 109.787C71.125 112.666 73.4658 115 76.3534 115Z" fill="url(#paint28_linear_1943:1121)"/>
</mask>
<g mask="url(#mask14_1943:1121)">
<path d="M76.3534 115C79.2409 115 81.5818 112.666 81.5818 109.787C81.5818 106.909 79.2409 104.575 76.3534 104.575C73.4658 104.575 71.125 106.909 71.125 109.787C71.125 112.666 73.4658 115 76.3534 115Z" fill="url(#paint29_linear_1943:1121)"/>
</g>
</g>
<defs>
<linearGradient id="paint0_linear_1943:1121" x1="57.4053" y1="110.551" x2="-13.9963" y2="-71.2526" gradientUnits="userSpaceOnUse">
<stop/>
<stop offset="1" stop-color="white"/>
</linearGradient>
<linearGradient id="paint1_linear_1943:1121" x1="57.4053" y1="110.551" x2="-13.9963" y2="-71.2526" gradientUnits="userSpaceOnUse">
<stop stop-color="#97C3F9"/>
<stop offset="1" stop-color="#93C1F9"/>
</linearGradient>
<linearGradient id="paint2_linear_1943:1121" x1="83.6097" y1="100.259" x2="12.2081" y2="-81.5444" gradientUnits="userSpaceOnUse">
<stop/>
<stop offset="1" stop-color="white"/>
</linearGradient>
<linearGradient id="paint3_linear_1943:1121" x1="83.6097" y1="100.259" x2="12.2081" y2="-81.5444" gradientUnits="userSpaceOnUse">
<stop stop-color="#97C3F9"/>
<stop offset="1" stop-color="#93C1F9"/>
</linearGradient>
<linearGradient id="paint4_linear_1943:1121" x1="109.814" y1="89.9679" x2="38.4126" y2="-91.8359" gradientUnits="userSpaceOnUse">
<stop/>
<stop offset="1" stop-color="white"/>
</linearGradient>
<linearGradient id="paint5_linear_1943:1121" x1="109.814" y1="89.9679" x2="38.4126" y2="-91.8359" gradientUnits="userSpaceOnUse">
<stop stop-color="#97C3F9"/>
<stop offset="1" stop-color="#93C1F9"/>
</linearGradient>
<linearGradient id="paint6_linear_1943:1121" x1="48.4628" y1="114.062" x2="-22.9376" y2="-67.7404" gradientUnits="userSpaceOnUse">
<stop/>
<stop offset="1" stop-color="white"/>
</linearGradient>
<linearGradient id="paint7_linear_1943:1121" x1="48.4628" y1="114.062" x2="-22.9376" y2="-67.7404" gradientUnits="userSpaceOnUse">
<stop stop-color="#97C3F9"/>
<stop offset="1" stop-color="#93C1F9"/>
</linearGradient>
<linearGradient id="paint8_linear_1943:1121" x1="74.6673" y1="103.771" x2="3.26689" y2="-78.0318" gradientUnits="userSpaceOnUse">
<stop/>
<stop offset="1" stop-color="white"/>
</linearGradient>
<linearGradient id="paint9_linear_1943:1121" x1="74.6673" y1="103.771" x2="3.26689" y2="-78.0318" gradientUnits="userSpaceOnUse">
<stop stop-color="#97C3F9"/>
<stop offset="1" stop-color="#93C1F9"/>
</linearGradient>
<linearGradient id="paint10_linear_1943:1121" x1="100.872" y1="93.4793" x2="29.4715" y2="-88.3232" gradientUnits="userSpaceOnUse">
<stop/>
<stop offset="1" stop-color="white"/>
</linearGradient>
<linearGradient id="paint11_linear_1943:1121" x1="100.872" y1="93.4793" x2="29.4715" y2="-88.3232" gradientUnits="userSpaceOnUse">
<stop stop-color="#97C3F9"/>
<stop offset="1" stop-color="#93C1F9"/>
</linearGradient>
<linearGradient id="paint12_linear_1943:1121" x1="39.5204" y1="117.575" x2="-31.8811" y2="-64.2287" gradientUnits="userSpaceOnUse">
<stop/>
<stop offset="1" stop-color="white"/>
</linearGradient>
<linearGradient id="paint13_linear_1943:1121" x1="39.5204" y1="117.575" x2="-31.8811" y2="-64.2287" gradientUnits="userSpaceOnUse">
<stop stop-color="#97C3F9"/>
<stop offset="1" stop-color="#93C1F9"/>
</linearGradient>
<linearGradient id="paint14_linear_1943:1121" x1="65.7249" y1="107.283" x2="-5.67673" y2="-74.5204" gradientUnits="userSpaceOnUse">
<stop/>
<stop offset="1" stop-color="white"/>
</linearGradient>
<linearGradient id="paint15_linear_1943:1121" x1="65.7249" y1="107.283" x2="-5.67673" y2="-74.5204" gradientUnits="userSpaceOnUse">
<stop stop-color="#97C3F9"/>
<stop offset="1" stop-color="#93C1F9"/>
</linearGradient>
<linearGradient id="paint16_linear_1943:1121" x1="91.9295" y1="96.992" x2="20.5278" y2="-84.8119" gradientUnits="userSpaceOnUse">
<stop/>
<stop offset="1" stop-color="white"/>
</linearGradient>
<linearGradient id="paint17_linear_1943:1121" x1="91.9295" y1="96.992" x2="20.5278" y2="-84.8119" gradientUnits="userSpaceOnUse">
<stop stop-color="#97C3F9"/>
<stop offset="1" stop-color="#93C1F9"/>
</linearGradient>
<linearGradient id="paint18_linear_1943:1121" x1="30.578" y1="121.087" x2="-40.8235" y2="-60.7167" gradientUnits="userSpaceOnUse">
<stop/>
<stop offset="1" stop-color="white"/>
</linearGradient>
<linearGradient id="paint19_linear_1943:1121" x1="30.578" y1="121.087" x2="-40.8235" y2="-60.7167" gradientUnits="userSpaceOnUse">
<stop stop-color="#97C3F9"/>
<stop offset="1" stop-color="#93C1F9"/>
</linearGradient>
<linearGradient id="paint20_linear_1943:1121" x1="56.7825" y1="110.796" x2="-14.6191" y2="-71.0083" gradientUnits="userSpaceOnUse">
<stop/>
<stop offset="1" stop-color="white"/>
</linearGradient>
<linearGradient id="paint21_linear_1943:1121" x1="56.7825" y1="110.796" x2="-14.6191" y2="-71.0083" gradientUnits="userSpaceOnUse">
<stop stop-color="#97C3F9"/>
<stop offset="1" stop-color="#93C1F9"/>
</linearGradient>
<linearGradient id="paint22_linear_1943:1121" x1="82.9871" y1="100.504" x2="11.5854" y2="-81.2999" gradientUnits="userSpaceOnUse">
<stop/>
<stop offset="1" stop-color="white"/>
</linearGradient>
<linearGradient id="paint23_linear_1943:1121" x1="82.9871" y1="100.504" x2="11.5854" y2="-81.2999" gradientUnits="userSpaceOnUse">
<stop stop-color="#97C3F9"/>
<stop offset="1" stop-color="#93C1F9"/>
</linearGradient>
<linearGradient id="paint24_linear_1943:1121" x1="21.6357" y1="124.599" x2="-49.7659" y2="-57.2048" gradientUnits="userSpaceOnUse">
<stop/>
<stop offset="1" stop-color="white"/>
</linearGradient>
<linearGradient id="paint25_linear_1943:1121" x1="21.6357" y1="124.599" x2="-49.7659" y2="-57.2048" gradientUnits="userSpaceOnUse">
<stop stop-color="#97C3F9"/>
<stop offset="1" stop-color="#93C1F9"/>
</linearGradient>
<linearGradient id="paint26_linear_1943:1121" x1="47.8402" y1="114.307" x2="-23.5614" y2="-67.4964" gradientUnits="userSpaceOnUse">
<stop/>
<stop offset="1" stop-color="white"/>
</linearGradient>
<linearGradient id="paint27_linear_1943:1121" x1="47.8402" y1="114.307" x2="-23.5614" y2="-67.4964" gradientUnits="userSpaceOnUse">
<stop stop-color="#97C3F9"/>
<stop offset="1" stop-color="#93C1F9"/>
</linearGradient>
<linearGradient id="paint28_linear_1943:1121" x1="74.0447" y1="104.016" x2="2.6431" y2="-77.7879" gradientUnits="userSpaceOnUse">
<stop/>
<stop offset="1" stop-color="white"/>
</linearGradient>
<linearGradient id="paint29_linear_1943:1121" x1="74.0447" y1="104.016" x2="2.6431" y2="-77.7879" gradientUnits="userSpaceOnUse">
<stop stop-color="#97C3F9"/>
<stop offset="1" stop-color="#93C1F9"/>
</linearGradient>
</defs>
</svg>
